{"accessors":[{"bufferView":2,"componentType":5126,"count":1564,"max":[25.789674758911133,47.44672393798828,27.53773307800293],"min":[-25.789674758911133,-0.13672618567943573,-27.53773307800293],"type":"VEC3","byteOffset":0},{"bufferView":2,"byteOffset":18768,"componentType":5126,"count":1564,"max":[1,0.999968409538269,0.9998277425765991],"min":[-1,-1,-0.9996792078018188],"type":"VEC3"},{"bufferView":3,"componentType":5126,"count":1564,"max":[1,0.9995697140693665,0.9974749684333801,1],"min":[-1,-0.9999991655349731,-0.9978680610656738,-1],"type":"VEC4","byteOffset":0},{"bufferView":1,"componentType":5126,"count":1564,"max":[0.9444233775138855,0.9900000095367432],"min":[0.009999999776482582,0.009999999776482582],"type":"VEC2","byteOffset":0},{"bufferView":0,"componentType":5125,"count":5148,"max":[1563],"min":[0],"type":"SCALAR","byteOffset":0},{"bufferView":2,"byteOffset":37536,"componentType":5126,"count":29784,"max":[23.61355209350586,47.20515060424805,28.086835861206055],"min":[-23.6043643951416,16.472036361694336,-25.54778480529785],"type":"VEC3"},{"bufferView":2,"byteOffset":394944,"componentType":5126,"count":29784,"max":[1,0.9999996423721313,0.9999743700027466],"min":[-1,-0.9999967217445374,-0.9999985098838806],"type":"VEC3"},{"bufferView":3,"byteOffset":25024,"componentType":5126,"count":29784,"max":[1,0.9999769926071167,0.999571681022644,1],"min":[-1,-0.9999924898147583,-0.9967589378356934,-1],"type":"VEC4"},{"bufferView":1,"byteOffset":12512,"componentType":5126,"count":29784,"max":[0.9444002509117126,0.9925000071525574],"min":[0.007499999832361937,0.007499999832361937],"type":"VEC2"},{"bufferView":0,"byteOffset":20592,"componentType":5125,"count":170040,"max":[29783],"min":[0],"type":"SCALAR"},{"bufferView":4,"componentType":5126,"count":2,"max":[5],"min":[0],"type":"SCALAR","byteOffset":0},{"bufferView":5,"componentType":5126,"count":2,"max":[0,75,400],"min":[0,75,400],"type":"VEC3","byteOffset":0},{"bufferView":4,"byteOffset":8,"componentType":5126,"count":2,"max":[5],"min":[0],"type":"SCALAR"},{"bufferView":5,"byteOffset":24,"componentType":5126,"count":2,"max":[1,1,1],"min":[1,1,1],"type":"VEC3"},{"bufferView":4,"byteOffset":16,"componentType":5126,"count":2,"max":[5],"min":[0],"type":"SCALAR"},{"bufferView":6,"componentType":5126,"count":2,"max":[-0.030843565240502357,0.7064337730407715,-0.030843565240502357,0.7064337730407715],"min":[-0.030843565240502357,0.7064337730407715,-0.030843565240502357,0.7064337730407715],"type":"VEC4","byteOffset":0},{"bufferView":4,"byteOffset":24,"componentType":5126,"count":2,"max":[5],"min":[0],"type":"SCALAR"},{"bufferView":5,"byteOffset":48,"componentType":5126,"count":2,"max":[0,0,0],"min":[0,0,0],"type":"VEC3"},{"bufferView":4,"byteOffset":32,"componentType":5126,"count":2,"max":[5],"min":[0],"type":"SCALAR"},{"bufferView":5,"byteOffset":72,"componentType":5126,"count":2,"max":[1,1,1],"min":[1,1,1],"type":"VEC3"},{"bufferView":4,"byteOffset":40,"componentType":5126,"count":2,"max":[5],"min":[0],"type":"SCALAR"},{"bufferView":6,"byteOffset":32,"componentType":5126,"count":2,"max":[0,0,0,1],"min":[0,0,0,1],"type":"VEC4"},{"bufferView":4,"byteOffset":48,"componentType":5126,"count":2,"max":[5],"min":[0],"type":"SCALAR"},{"bufferView":5,"byteOffset":96,"componentType":5126,"count":2,"max":[0,1.5,-0.6000000238418579],"min":[0,1.5,-0.6000000238418579],"type":"VEC3"},{"bufferView":4,"byteOffset":56,"componentType":5126,"count":2,"max":[5],"min":[0],"type":"SCALAR"},{"bufferView":5,"byteOffset":120,"componentType":5126,"count":2,"max":[1,1,1],"min":[1,1,1],"type":"VEC3"},{"bufferView":4,"byteOffset":64,"componentType":5126,"count":2,"max":[5],"min":[0],"type":"SCALAR"},{"bufferView":6,"byteOffset":64,"componentType":5126,"count":2,"max":[0,0,0,1],"min":[0,0,0,1],"type":"VEC4"},{"bufferView":4,"byteOffset":72,"componentType":5126,"count":2,"max":[5],"min":[0],"type":"SCALAR"},{"bufferView":5,"byteOffset":144,"componentType":5126,"count":2,"max":[0,0.14000000059604645,0],"min":[0,0.14000000059604645,0],"type":"VEC3"},{"bufferView":4,"byteOffset":80,"componentType":5126,"count":2,"max":[5],"min":[0],"type":"SCALAR"},{"bufferView":5,"byteOffset":168,"componentType":5126,"count":2,"max":[1,1,1],"min":[1,1,1],"type":"VEC3"},{"bufferView":4,"byteOffset":88,"componentType":5126,"count":2,"max":[5],"min":[0],"type":"SCALAR"},{"bufferView":6,"byteOffset":96,"componentType":5126,"count":2,"max":[0,0,0,1],"min":[0,0,0,1],"type":"VEC4"},{"bufferView":4,"byteOffset":96,"componentType":5126,"count":2,"max":[5],"min":[0],"type":"SCALAR"},{"bufferView":5,"byteOffset":192,"componentType":5126,"count":2,"max":[0,0,0],"min":[0,0,0],"type":"VEC3"},{"bufferView":4,"byteOffset":104,"componentType":5126,"count":2,"max":[5],"min":[0],"type":"SCALAR"},{"bufferView":5,"byteOffset":216,"componentType":5126,"count":2,"max":[1,1,1],"min":[1,1,1],"type":"VEC3"},{"bufferView":4,"byteOffset":112,"componentType":5126,"count":2,"max":[5],"min":[0],"type":"SCALAR"},{"bufferView":6,"byteOffset":128,"componentType":5126,"count":2,"max":[0,0,0,1],"min":[0,0,0,1],"type":"VEC4"},{"bufferView":4,"byteOffset":120,"componentType":5126,"count":2,"max":[5],"min":[0],"type":"SCALAR"},{"bufferView":5,"byteOffset":240,"componentType":5126,"count":2,"max":[-200,200,200],"min":[-200,200,200],"type":"VEC3"},{"bufferView":4,"byteOffset":128,"componentType":5126,"count":2,"max":[5],"min":[0],"type":"SCALAR"},{"bufferView":5,"byteOffset":264,"componentType":5126,"count":2,"max":[1,1,1],"min":[1,1,1],"type":"VEC3"},{"bufferView":4,"byteOffset":136,"componentType":5126,"count":2,"max":[5],"min":[0],"type":"SCALAR"},{"bufferView":6,"byteOffset":160,"componentType":5126,"count":2,"max":[0.4619397521018982,-0.3314135670661926,0.19134171307086945,0.8001031279563904],"min":[0.4619397521018982,-0.3314135670661926,0.19134171307086945,0.8001031279563904],"type":"VEC4"}],"animations":[{"channels":[{"sampler":0,"target":{"node":5,"path":"translation"}},{"sampler":1,"target":{"node":5,"path":"scale"}},{"sampler":2,"target":{"node":5,"path":"rotation"}},{"sampler":3,"target":{"node":8,"path":"translation"}},{"sampler":4,"target":{"node":8,"path":"scale"}},{"sampler":5,"target":{"node":8,"path":"rotation"}},{"sampler":6,"target":{"node":10,"path":"translation"}},{"sampler":7,"target":{"node":10,"path":"scale"}},{"sampler":8,"target":{"node":10,"path":"rotation"}},{"sampler":9,"target":{"node":7,"path":"translation"}},{"sampler":10,"target":{"node":7,"path":"scale"}},{"sampler":11,"target":{"node":7,"path":"rotation"}},{"sampler":12,"target":{"node":12,"path":"translation"}},{"sampler":13,"target":{"node":12,"path":"scale"}},{"sampler":14,"target":{"node":12,"path":"rotation"}},{"sampler":15,"target":{"node":13,"path":"translation"}},{"sampler":16,"target":{"node":13,"path":"scale"}},{"sampler":17,"target":{"node":13,"path":"rotation"}}],"name":"Take 001","samplers":[{"input":10,"interpolation":"LINEAR","output":11},{"input":12,"interpolation":"LINEAR","output":13},{"input":14,"interpolation":"LINEAR","output":15},{"input":16,"interpolation":"LINEAR","output":17},{"input":18,"interpolation":"LINEAR","output":19},{"input":20,"interpolation":"LINEAR","output":21},{"input":22,"interpolation":"LINEAR","output":23},{"input":24,"interpolation":"LINEAR","output":25},{"input":26,"interpolation":"LINEAR","output":27},{"input":28,"interpolation":"LINEAR","output":29},{"input":30,"interpolation":"LINEAR","output":31},{"input":32,"interpolation":"LINEAR","output":33},{"input":34,"interpolation":"LINEAR","output":35},{"input":36,"interpolation":"LINEAR","output":37},{"input":38,"interpolation":"LINEAR","output":39},{"input":40,"interpolation":"LINEAR","output":41},{"input":42,"interpolation":"LINEAR","output":43},{"input":44,"interpolation":"LINEAR","output":45}]}],"asset":{"extras":{"author":"brucassol (https://sketchfab.com/brucassol)","license":"CC-BY-4.0 (http://creativecommons.org/licenses/by/4.0/)","source":"https://sketchfab.com/models/327203d10f524ed2aac78e59546821b3","title":"Chair"},"generator":"Sketchfab-3.20.7","version":"2.0"},"bufferViews":[{"buffer":0,"byteLength":700752,"byteOffset":0,"name":"floatBufferViews","target":34963},{"buffer":0,"byteLength":250784,"byteOffset":700752,"byteStride":8,"name":"floatBufferViews","target":34962},{"buffer":0,"byteLength":752352,"byteOffset":951536,"byteStride":12,"name":"floatBufferViews","target":34962},{"buffer":0,"byteLength":501568,"byteOffset":1703888,"byteStride":16,"name":"floatBufferViews","target":34962},{"buffer":0,"byteLength":144,"byteOffset":2205456,"name":"floatBufferViews"},{"buffer":0,"byteLength":288,"byteOffset":2205600,"byteStride":12,"name":"floatBufferViews"},{"buffer":0,"byteLength":192,"byteOffset":2205888,"byteStride":16,"name":"floatBufferViews"},{"buffer":0,"byteOffset":2206080,"byteLength":839},{"buffer":0,"byteOffset":2206920,"byteLength":65812},{"buffer":0,"byteOffset":2272732,"byteLength":1497}],"buffers":[{"byteLength":2274232,"uri":"data:application/octet-stream;base64,"}],"images":[{"bufferView":7,"mimeType":"image/jpeg"},{"bufferView":8,"mimeType":"image/jpeg"},{"bufferView":9,"mimeType":"image/png"}],"materials":[{"doubleSided":true,"emissiveFactor":[0,0,0],"name":"Madeira","pbrMetallicRoughness":{"baseColorFactor":[1,1,1,1],"baseColorTexture":{"index":1,"texCoord":0},"metallicFactor":0.2,"metallicRoughnessTexture":{"index":2,"texCoord":0},"roughnessFactor":1},"alphaMode":"OPAQUE"},{"doubleSided":true,"emissiveFactor":[0,0,0],"name":"Couro","normalTexture":{"index":0,"scale":1,"texCoord":0},"pbrMetallicRoughness":{"baseColorFactor":[1,1,0,1],"metallicFactor":0.53,"roughnessFactor":0.6},"alphaMode":"OPAQUE"}],"meshes":[{"name":"Madeira (2)_Madeira_0","primitives":[{"attributes":{"NORMAL":1,"POSITION":0,"TANGENT":2,"TEXCOORD_0":3},"indices":4,"material":0,"mode":4}]},{"name":"Almofada_Couro_0","primitives":[{"attributes":{"NORMAL":6,"POSITION":5,"TANGENT":7,"TEXCOORD_0":8},"indices":9,"material":1,"mode":4}]}],"nodes":[{"children":[1],"name":"RootNode (gltf orientation matrix)","rotation":[-0.7071067811865475,0,0,0.7071067811865476],"translation":[0,0,0],"scale":[1,1,1]},{"children":[2],"matrix":[0.5856351852416992,0.8105747699737549,0,0,-0.8105747699737549,0.5856351852416992,0,0,0,0,1,0,0.00003724670023075305,-0.0000404366001021117,0,1],"name":"RootNode (model correction matrix)"},{"children":[3],"matrix":[1,0,0,0,0,0,1,0,0,-1,0,0,0,0,0,1],"name":"7cb4ba39acb74acf8dd12c14f6121175.fbx"},{"children":[4],"name":""},{"children":[5,7,12,13],"name":"RootNode"},{"children":[6],"name":"Camera","rotation":[-0.030843565240502357,0.7064337730407715,-0.030843565240502357,0.7064337730407715],"translation":[0,75,400],"scale":[1,1,1]},{"name":""},{"children":[8,10],"name":"Poltrona","translation":[0,0.14000000059604645,0],"rotation":[0,0,0,1],"scale":[1,1,1]},{"children":[9],"name":"Madeira (2)"},{"mesh":0,"name":"Madeira (2)_Madeira_0"},{"children":[11],"name":"Almofada","translation":[0,1.5,-0.6000000238418579],"rotation":[0,0,0,1],"scale":[1,1,1]},{"mesh":1,"name":"Almofada_Couro_0"},{"name":"Texture Group"},{"children":[14],"name":"Directional Light","rotation":[0.4619397521018982,-0.3314135670661926,0.19134171307086945,0.8001031279563904],"translation":[-200,200,200],"scale":[1,1,1]},{"children":[15],"matrix":[1,0,0,0,0,2.220446049250313e-16,1,0,0,-1,2.220446049250313e-16,0,0,0,0,1],"name":""},{"name":""}],"samplers":[{"magFilter":9729,"minFilter":9987,"wrapS":10497,"wrapT":10497}],"scene":0,"scenes":[{"name":"OSG_Scene","nodes":[0]}],"textures":[{"sampler":0,"source":0},{"sampler":0,"source":1},{"sampler":0,"source":2}]}
